<svg class="w-full h-full object-contain fill-current" xmlns="http://www.w3.org/2000/svg" xml:space="preserve" style="enable-background: new 0 0 2052.6 2051.1;" viewBox="0 0 2052.6 2051.1">
  <path d="M502 1847.6c5.8.6 9.3 1.4 12.9 1.4 40.3.1 80.7-.2 121 .2 8.7.1 13.1-3.3 16.6-11 14.3-31.5 35.2-58.7 57.1-85.2 1-1.2 2.4-2.1 4.9-4.2 1.6 3.7 3.1 6.5 4 9.4 8.6 26.3 16.5 52.7 20.2 80.3 1.3 9.9 2.2 10.6 12.1 10.6 42.3.1 84.7-.1 127 .1 7.4 0 11.2-3.3 14.5-9.6 7-13.6 13.9-27.4 22.7-39.8 11-15.4 23.8-29.5 35.9-44.2 1-1.2 2.4-2.2 4.8-4.4 11.9 31.6 20.5 63 23.7 96.6 4.5.5 8.3 1.3 12.2 1.3 54.7.1 109.3.1 164 0 3.5 0 7.1-.7 11.6-1.2-1.3-3.5-2-6-3.2-8.2-4-7.3-8.2-14.5-12.5-21.6-11-18.4-18.9-38.1-25.3-58.5-9.3-29.5-19.5-58.8-29-88.2-7.8-24.1-15.1-48.3-22.8-72.4-1.3-4.1-.9-7.6 1.7-11.2 13.1-18.5 26.2-37 39-55.7 3.4-5 7.6-7.1 13.4-6.8 2.7.1 5.3 0 8 0h273c18.2 0 16.6-.1 21.4 15.5 13.1 42.3 26.3 84.5 39.3 126.8 10.6 34.4 20.9 68.8 31.3 103.2 5.3 17.6 9.3 35.4 9.5 53.9.1 7.6 1.4 15.1 2.1 22.3 11.2 3.3 184.5 3.1 193.5-.2-1.4-2.6-2.6-5.3-4-7.8-16-27.9-27.8-57.5-37.8-87.9-7.7-23.4-16.4-46.5-24.1-69.9-11.7-35.4-22.9-71-34.4-106.4-11-33.9-22.5-67.6-33.1-101.6-9-28.9-16.8-58.2-25.3-87.2-9.9-33.9-20.2-67.6-30.1-101.5-13.4-46-27.1-92-39.6-138.2-4.4-16.3-5.5-33.4-8.1-50.2-.4-2.3-.4-4.6-.7-7-.5-4.2-2.6-6.7-7.2-6.5-1.7.1-3.3-.1-5-.1-43.3 0-86.7.1-130-.1-7.3 0-11 2.3-14.5 9-16.1 31.4-33.9 61.8-55.7 89.8-17.6 22.6-33.9 46.2-51 69.1-10.5 14.2-21.6 27.9-32.3 42-14.9 19.6-29.5 39.4-44.4 59-7.9 10.3-16.1 20.4-24.1 30.7-20.7 26.9-41.3 53.9-61.9 80.9-2.6 3.4-5.4 6.6-8.9 10.9-1.5-3.2-2.7-5-3.3-7.1-6.4-22.1-12.6-44.1-19-66.2-1.3-4.6-.4-8.3 2.6-12 7.3-9.1 14.3-18.4 21.5-27.5 18.4-23.2 37-46.3 55.3-69.7 16.6-21.2 32.6-42.9 49.5-64 26.4-33 52.9-66 80-98.4 11.1-13.2 24.1-24.9 36.3-37.1 2.1-2.1 4.9-3.5 7.3-5.2-.4-.8-.8-1.5-1.3-2.3-1.7-.6-3.4-1.6-5-1.6-47.7-.1-95.3 0-143 0-1.3 0-2.6.5-4.5.9-.7 2.4-1.7 4.8-2.1 7.4-3.5 20.2-12.4 37.7-25.2 53.5-16 19.7-31.3 39.8-47 59.7-15.7 19.8-31.7 39.4-47.4 59.3-6 7.6-11.6 15.4-17.5 23.1-2 2.5-4.3 4.8-7.9 8.7-1.8-5-3.2-8.2-4.1-11.5-12.2-43.2-24.2-86.6-36.7-129.7-5.1-17.6-11-35-12.1-53.4-.3-5.3-.7-10.6-1.2-17-3.3-.3-6.5-.9-9.7-.9-55-.1-110-.1-165 0-2.9 0-5.8.4-10.2.7 1.7 4 2.8 7 4.2 9.8 12.3 23 21.7 47.1 29.5 72 8.7 27.6 18.2 55 27.2 82.5 13.2 40.2 26.2 80.4 39.2 120.6 5.1 15.8 10.1 31.7 15.3 47.5 1.5 4.6 2.1 8.6-1.4 13-13.5 16.9-26.7 34.2-40 51.2-1.6 2-3.8 3.5-6.8 6.3-1.7-3.9-3.2-6.7-4.1-9.7-10.4-32.7-20.9-65.3-31.1-98-13.2-42.6-26.2-85.3-39.3-127.9-8.8-29-18-57.8-26.1-87-3.6-13.1-5.2-26.7-7.2-40.2-1.4-9.5-1.9-19.2-3-28.8-.4-3.6-1.2-7.1-1.9-11.3-3.8-.3-7-.7-10.3-.7-46 0-92 .1-138-.2-7.3 0-11.3 2.4-14.6 9.1-11.1 22.7-22.6 45.3-34.6 67.5-5.4 9.9-12.1 19.2-18.8 28.3-23.6 32.2-47.4 64.3-71.3 96.3-17.6 23.4-35.6 46.5-53.4 69.8-21.4 28.1-42.7 56.2-64.1 84.3-16.8 22-33.8 43.7-50.6 65.7-21.6 28.3-43 56.8-64.8 85-16.3 21.1-32.9 41.9-49.4 62.8-26.3 33.1-52.7 66.2-79 99.3-7.3 9.1-14.3 18.4-21.6 27.5-2 2.4-4.3 4.5-6.5 6.8-.7-.3-1.5-.5-2.2-.8V14.3C0 0 .1 0 14.8 0h1900.9c40.7 0 81.3.1 122 .2 2 0 4-.1 6 .1 7.2.6 8.6 2 8.9 9.2.1 2.7 0 5.3 0 8v2016.9c0 16.7 0 16.8-16.4 16.8H16.3c-16.3 0-16.3 0-16.3-15.9v-170c0-2-.1-4 0-6 .3-8.2 1.7-10 10.1-10.1 19.7-.2 39.3-.1 59-.1 1.7 0 3.4-.2 5 0 11.6 1.7 18.4-2.9 24.5-13.5 10.2-17.9 22.1-34.9 34.4-51.4 28.2-37.5 57.2-74.4 85.8-111.7 14.8-19.3 29-39 43.8-58.3 21.2-27.8 42.6-55.5 63.8-83.3 2.8-3.7 6.2-5.8 11-5.8 3.3 0 6.7-.1 10-.1h270c16.6 0 16.5.1 21.2 16.1 9.3 31.6 18.5 63.3 28.3 94.7 2.5 7.9 1.4 13.8-3.7 20.2-19.1 24-37.8 48.3-56.6 72.4-11.9 15.2-24 30.3-35.7 45.6-16.8 22.1-36.7 41.3-56.5 60.6-3.9 3.7-7.3 7.6-12.4 13zm656.9-836.9c4.2 1 6.4 1.9 8.6 1.9 32 .1 64 0 96 .1 6.2 0 10.6-3.1 14.3-7.8 13.8-18 27.8-35.8 41.6-53.7 31-40.4 62-80.9 93-121.4 25.5-33.3 51.1-66.6 76.7-99.9 14.4-18.7 29.1-37.3 43.5-56 24-31.2 47.8-62.5 71.7-93.6 15.4-20.1 31.1-39.9 46.6-60 20.1-26.1 40.1-52.4 60.2-78.5 26.6-34.6 53.3-69.1 79.9-103.7 35.3-46 70.5-92 105.8-138 17.5-22.7 35.1-45.3 52.7-67.9 5.3-6.8 10.9-13.5 16.1-20.4 17.2-22.5 34.2-45.1 51.4-67.6 7.9-10.3 16.1-20.4 24-30.7 2.3-3 3.7-6.5 6.3-11.1-5.2-.4-8.5-.9-11.7-1-8-.1-16-.1-24-.1-21 0-42 .1-63 0-6.7 0-12.3 1.6-16.7 7.2-12.2 15.8-24.8 31.4-37 47.2-15.6 20.3-30.8 41-46.5 61.3-34.7 44.8-69.6 89.4-104.3 134.1-20.6 26.6-40.9 53.4-61.5 80-17.7 22.9-35.6 45.7-53.3 68.7-16.1 20.8-31.9 41.8-48 62.6-22.1 28.4-44.4 56.6-66.4 85.1-15.7 20.3-30.8 41-46.5 61.3-33.9 43.7-68 87.2-101.9 130.9-15.7 20.3-30.8 41-46.5 61.3-21.6 27.9-43.8 55.4-65.4 83.4-16.7 21.6-32.9 43.6-49.5 65.3-13 16.9-26.2 33.6-39.3 50.5-2 2.9-3.9 6-6.9 10.5z"></path>
  <path d="M552.8 1233.7c.9 22.1 3.5 43.3 9 63.9 5.2 19.3 11.7 38.2 17.6 57.2 7.2 23.2 14.5 46.3 21.8 69.5.7 2.1.9 4.4 1.3 6.5-8.2 3.1-185.5 3.3-194.5.3 1.7-6.7 6.6-11.3 10.7-16.4 17.4-21.9 35.1-43.5 52.4-65.5 15.4-19.7 30.7-39.4 45.2-59.7 12.2-17 23.1-35 34.5-52.5.7-1.1 1.3-2.2 2-3.3zM1341 1234.3c1.8 16.2 3.4 32.4 5.4 48.5.6 4.9 2.4 9.7 3.9 14.4 12.7 41 25.5 81.9 38.3 122.9 1.1 3.6 1.7 7.4 2.5 11.1-9.1 2.4-184.4 2.7-195.3.5 1-2.1 1.5-4.3 2.7-5.9 14.7-18.5 29.8-36.7 44.3-55.4 15.1-19.4 29.7-39.3 44.5-58.9 6.4-8.5 13.2-16.7 19.3-25.5 11.8-17.2 23.2-34.7 34.4-51.7zM880.4 1531.9c5.3 14.7 9.8 27.1 14.3 39.5 6.2 17.5 12.3 35.1 18.7 52.6 1.3 3.6 2.3 6.6-.4 10.2-16.5 22.5-32.8 45.1-49.7 68.5-1.3-1.9-2.5-3-2.9-4.4-9.6-29-19-58.2-28.8-87.1-2.9-8.4-1.7-15 4-22.1 13-16 25.2-32.7 37.7-49 1.7-2.3 3.7-4.4 7.1-8.2z"></path>
</svg>