<svg class="w-full h-full object-contain fill-current" xmlns="http://www.w3.org/2000/svg" xml:space="preserve" style="enable-background: new 0 0 1983.9 1980.2;" viewBox="0 0 1983.9 1980.2">
  <path d="M3.9 990.3C3.7 442.9 448.5-.8 996.3 0c544.7.8 987.8 444.7 987.6 990.8-.2 547-444 989.8-991.8 989.4-545.2-.3-988.2-443.9-988.2-989.9zm863.2 465.6h6.5c105.8 0 211.6.1 317.5 0 27.3 0 54.6-1.7 81.7-5.5 62.1-8.7 120.9-27.6 176-57.6 74.5-40.6 135.8-96.2 183.8-165.9 81-117.5 119.5-247.2 107.5-390.5-4-47.3-15.4-92.9-35.1-136.1-35.5-77.9-91.7-135.2-170.1-170.2-54.7-24.4-112.5-34.8-172-35.2-111-.7-222-.3-333-.3-1.2 0-2.3.1-4 .2-53 320-105.8 640.2-158.8 961.1zm-578.4 26.2c2 .4 3.6.8 5.2 1 29.4 3.1 58.6 1.5 87.6-3.3 66.3-11.1 126.3-37.6 181.6-75.4 55.2-37.8 101.9-84.6 142.8-137.3 49.9-64.3 89.6-134.6 123-208.6 50.6-112.3 85.8-229.5 113-349.4 13.7-60.4 25-121.3 34.8-182.4 1.6-9.8 3-19.7 4.5-29.9H752.3c-.2 1.1-.3 1.9-.4 2.7-2.9 24-5.5 48-8.8 71.9-10.6 75.9-25.4 151-45.1 225-21.4 80.2-48.1 158.5-86.2 232.6-24.2 47.2-52.5 91.6-89.2 130.3-54.5 57.5-119.3 93.1-200.4 93.4-2.9 0-3.7 1.3-4 3.8-3 23.6-6.1 47.2-9.2 70.8-5.2 39.5-10.3 78.9-15.5 118.4-1.7 12-3.2 24.1-4.8 36.4z"></path>
  <path d="M1124.7 1235.3c3.7-22.3 7.2-43.6 10.7-65 8.2-49.6 16.3-99.2 24.5-148.8 8.5-51.6 17-103.2 25.5-154.7 8.2-49.6 16.3-99.2 24.5-148.8 0-.2 0-.3.1-.5 1.3-8.8 1.3-8.7 10.2-9.4 37.6-3.1 74.9-1.6 112 5.1 37.6 6.8 73.1 18.9 104.5 41.4 38.6 27.8 60.8 65.8 69.2 112.2 6.8 37.8 4 75.3-3 112.8-7.7 41.2-20.8 80.5-42.5 116.6-35.6 59.2-87.3 98.3-152.2 120.6-50.1 17.2-101.8 23.1-154.6 20.6-9.3-.4-18.8-1.3-28.9-2.1z"></path>
</svg>